
  General #1
      ID : 1 (0x1)
      Complete name : MTV.Europe.Music.Awards.2011.MPEG2.1080i-aB.ts
      Format : MPEG-TS
      File size : 19.8 GiB
      Duration : 1h 45mn
      Overall bit rate : 26.8 Mbps
      Maximum Overall bit rate : 35.5 Mbps
  Video #4113
      ID : 4113 (0x1011)
      Menu ID : 1 (0x1)
      Format : MPEG Video
      Format version : Version 2
      Format profile : Main@High
      Format settings, BVOP : Yes
      Format settings, Matrix : Default
      Codec ID : 2
      Duration : 1h 45mn
      Bit rate mode : Variable
      Bit rate : 25.2 Mbps
      Nominal bit rate : 23.0 Mbps
      Width : 1 920 pixels
      Height : 1 080 pixels
      Display aspect ratio : 16:9
      Frame rate : 25.000 fps
      Color space : YUV
      Chroma subsampling : 4:2:0
      Bit depth : 8 bits
      Scan type : Interlaced
      Scan order : Top Field First
      Compression mode : Lossy
      Bits/(Pixel*Frame) : 0.486
      Stream size : 18.6 GiB (94%)
  Audio #4352
      ID : 4352 (0x1100)
      Menu ID : 1 (0x1)
      Format : MPEG Audio
      Format version : Version 1
      Format profile : Layer 2
      Mode : Joint stereo
      Mode extension : Intensity Stereo + MS Stereo
      Codec ID : 4
      Duration : 1h 45mn
      Bit rate mode : Constant
      Bit rate : 256 Kbps
      Channel(s) : 2 channels
      Sampling rate : 48.0 KHz
      Compression mode : Lossy
      Stream size : 193 MiB (1%)